<?xml version="1.0" encoding="UTF-8"?>
<svg id="Layer_1" data-name="Layer 1" xmlns="http://www.w3.org/2000/svg" viewBox="0 0 567 153.82">
  <defs>
    <style>
      .cls-1 {
        fill: #fff;
      }

      .cls-2 {
        fill: #27ad4c;
      }
    </style>
  </defs>
  <rect class="cls-2" width="567" height="153.82"/>
  <g>
    <path class="cls-1" d="M170.93,113.14c.96,1.35,2.39,2.37,4.31,3.07l-2.74,8.36c-3.57-.44-6.44-1.44-8.62-3-2.18-1.57-3.79-4-4.83-7.31-4.62,6.88-11.45,10.32-20.5,10.32-6.79,0-12.15-1.91-16.06-5.75-3.92-3.83-5.88-8.84-5.88-15.02,0-7.31,2.63-12.93,7.9-16.85,5.27-3.92,12.73-5.88,22.4-5.88h10.58v-5.09c0-4.87-1.18-8.36-3.53-10.45-2.35-2.09-5.96-3.13-10.84-3.13s-11.23,1.22-18.54,3.66l-3-8.75c8.53-3.13,16.45-4.7,23.77-4.7,8.1,0,14.15,1.98,18.15,5.94,4,3.96,6.01,9.6,6.01,16.91v31.47c0,2.79.48,4.85,1.44,6.2ZM157.48,104.84v-15.8h-9.01c-12.71,0-19.07,4.7-19.07,14.1,0,4.09,1,7.18,3,9.27,2,2.09,4.96,3.13,8.88,3.13,6.88,0,12.28-3.57,16.19-10.71Z"/>
    <path class="cls-1" d="M228.91,119.7c-4.53,3.24-9.66,4.86-15.41,4.86s-10.38-1.73-13.65-5.2c-3.26-3.47-4.9-8.49-4.9-15.06v-42.96h-12.01v-9.59h12.01v-16.08l12.01-1.49v17.56h16.32l-1.31,9.59h-15.02v42.42c0,3.69.63,6.37,1.89,8.04,1.26,1.67,3.37,2.5,6.33,2.5s5.92-1.03,9.14-3.11l4.57,8.51Z"/>
    <path class="cls-1" d="M288.4,62.27c5.35,6.44,8.03,15.19,8.03,26.25,0,7.14-1.22,13.43-3.66,18.87-2.44,5.44-5.96,9.66-10.58,12.67-4.62,3-10.1,4.51-16.45,4.51-9.66,0-17.2-3.22-22.59-9.66-5.4-6.44-8.1-15.19-8.1-26.25,0-7.14,1.22-13.43,3.66-18.87,2.44-5.44,5.96-9.66,10.58-12.67,4.61-3,10.14-4.51,16.59-4.51,9.66,0,17.17,3.22,22.53,9.66ZM247.98,88.65c0,17.5,5.92,26.25,17.76,26.25s17.76-8.79,17.76-26.38-5.88-26.25-17.63-26.25-17.89,8.79-17.89,26.38Z"/>
    <path class="cls-1" d="M367.21,81.37h-37.87v41.63h-12.41V34.19h12.41v37.12h37.87v-37.12h12.41v88.8h-12.41v-41.63Z"/>
    <path class="cls-1" d="M452.88,113.14c.96,1.35,2.39,2.37,4.31,3.07l-2.74,8.36c-3.57-.44-6.44-1.44-8.62-3-2.18-1.57-3.79-4-4.83-7.31-4.62,6.88-11.45,10.32-20.5,10.32-6.79,0-12.14-1.91-16.06-5.75-3.92-3.83-5.88-8.84-5.88-15.02,0-7.31,2.63-12.93,7.9-16.85,5.27-3.92,12.73-5.88,22.4-5.88h10.58v-5.09c0-4.87-1.18-8.36-3.53-10.45-2.35-2.09-5.96-3.13-10.84-3.13s-11.23,1.22-18.54,3.66l-3-8.75c8.53-3.13,16.45-4.7,23.77-4.7,8.1,0,14.15,1.98,18.15,5.94,4,3.96,6.01,9.6,6.01,16.91v31.47c0,2.79.48,4.85,1.44,6.2ZM439.43,104.84v-15.8h-9.01c-12.71,0-19.07,4.7-19.07,14.1,0,4.09,1,7.18,3,9.27,2,2.09,4.96,3.13,8.88,3.13,6.88,0,12.28-3.57,16.19-10.71Z"/>
    <path class="cls-1" d="M479.32,120.95c-2.57-2.41-3.85-5.79-3.85-10.14V35.5l12.01-1.3v76.38c0,1.74.33,3.01.98,3.8.65.79,1.76,1.19,3.33,1.19,1.65,0,3.13-.24,4.44-.71l3.13,7.59c-2.87,1.42-6.05,2.13-9.53,2.13-4.44,0-7.95-1.21-10.51-3.62Z"/>
    <path class="cls-1" d="M517.59,120.95c-2.57-2.41-3.85-5.79-3.85-10.14V35.5l12.01-1.3v76.38c0,1.74.33,3.01.98,3.8.65.79,1.76,1.19,3.33,1.19,1.65,0,3.13-.24,4.44-.71l3.13,7.59c-2.87,1.42-6.05,2.13-9.53,2.13-4.44,0-7.95-1.21-10.51-3.62Z"/>
    <path class="cls-1" d="M60.77,40.17c3.05-.68,6.1-1.37,9.15-2.05,3.66-.82,6.51-1.08,10.27-1.08h2.24c-1.59-.63-3.23-1.19-5-1.6-3.68-.86-9.01-1.29-15.99-1.29h-30.91v6.96h23.08c2.6,0,4.61-.37,7.16-.94Z"/>
    <path class="cls-1" d="M60.77,53.89c3.05-.68,6.1-1.37,9.15-2.05,3.66-.82,6.51-1.07,10.27-1.07h17.85c-1.47-2.45-3.18-4.67-5.14-6.67h-12.71c-3.75,0-6.59.25-10.24,1.06-3.03.67-6.06,1.35-9.08,2.02-2.66.59-4.79,1-7.51,1h-22.83v6.67h23.08c2.6,0,4.61-.37,7.16-.94Z"/>
    <path class="cls-1" d="M80.2,85.26c-3.75,0-6.59.25-10.24,1.06-3.03.67-6.06,1.35-9.08,2.02-2.66.59-4.79,1-7.51,1h-22.83v6.67h23.08c2.6,0,4.61-.37,7.16-.94,3.05-.68,6.1-1.37,9.15-2.05,3.66-.82,6.51-1.08,10.27-1.08h23.31c.42-2.11.72-4.34.92-6.67h-24.23Z"/>
    <path class="cls-1" d="M60.77,67.61c3.05-.68,6.1-1.37,9.15-2.05,3.66-.82,6.51-1.07,10.27-1.07h23.09c-.5-2.31-1.1-4.55-1.87-6.67h-21.22c-3.75,0-6.59.25-10.24,1.06-3.03.67-6.06,1.35-9.08,2.02-2.66.59-4.79,1-7.51,1h-22.83v6.67h23.08c2.6,0,4.61-.37,7.16-.94Z"/>
    <path class="cls-1" d="M60.77,81.33c3.05-.68,6.1-1.37,9.15-2.05,3.66-.82,6.51-1.08,10.27-1.08h24.54c0-2.3-.14-4.51-.35-6.67h-24.19c-3.75,0-6.59.25-10.24,1.06-3.03.67-6.06,1.35-9.08,2.02-2.66.59-4.79,1-7.51,1h-22.83v6.67h23.08c2.6,0,4.61-.37,7.16-.94Z"/>
    <path class="cls-1" d="M69.95,113.76c-3.03.67-6.06,1.35-9.08,2.02-2.66.59-4.79,1-7.51,1h-22.83v7.14h32.39c5.41,0,10.22-.5,14.42-1.53,4.18-1.02,7.76-2.53,10.7-4.51,2.05-1.36,3.98-3.1,5.8-5.17h-13.65c-3.75,0-6.59.25-10.24,1.06Z"/>
    <path class="cls-1" d="M69.95,100.04c-3.03.67-6.06,1.35-9.08,2.02-2.66.59-4.79,1-7.51,1h-22.83v6.67h23.08c2.6,0,4.61-.37,7.16-.94,3.05-.68,6.1-1.37,9.15-2.05,3.66-.82,6.51-1.08,10.27-1.08h18.51c1.06-2.01,2.01-4.23,2.85-6.67h-21.37c-3.75,0-6.59.25-10.24,1.06Z"/>
  </g>
</svg>